<svg xmlns="http://www.w3.org/2000/svg" xmlns:xlink="http://www.w3.org/1999/xlink" viewBox="0 0 750 500"><defs><clipPath id="freepik--clip-path--inject-4"><path d="M409.45,256.42a34.65,34.65,0,1,0-69.29,0v69.29a34.65,34.65,0,0,0,69.29,0Z" style="fill:#F96D00;stroke:#263238;stroke-miterlimit:10;stroke-width:0.9696422508675577px"></path></clipPath><clipPath id="freepik--clip-path-2--inject-4"><path d="M615.36,393.44s-.13,20.53-2.3,23.91c-2.59,4-4.43,9.59,2.43,11.11s10.94,9.09,19.11,9.59,9-3,5.44-5.81-12.6-10.6-13.79-14.39,1.12-24.41,1.12-24.41Z" style="fill:#fff;stroke:#263238;stroke-linecap:round;stroke-linejoin:round;stroke-width:0.9325674165897908px"></path></clipPath><clipPath id="freepik--clip-path-3--inject-4"><path d="M569.23,386s-9,18.78-12.4,21.07c-4.11,2.74-8.19,7.15-2.56,11.08s6.13,12.39,13.4,15.88,9.54.54,7.49-3.31-7-14.39-6.45-18.31S580.33,390,580.33,390Z" style="fill:#fff;stroke:#263238;stroke-linecap:round;stroke-linejoin:round;stroke-width:0.9325674165897908px"></path></clipPath><clipPath id="freepik--clip-path-4--inject-4"><path d="M636.62,212.89l-14,13,.26-19.48A17.45,17.45,0,0,0,615,191.54l.53,51.27c13.75.87,26-26.11,26-26.11A7.51,7.51,0,0,0,636.62,212.89Z" style="fill:#fff;stroke:#263238;stroke-linecap:round;stroke-linejoin:round;stroke-width:0.9325674165897908px"></path></clipPath><clipPath id="freepik--clip-path-5--inject-4"><path d="M191.8,257.64s-1.79-11.77-5.72-28.72-11.61-18.28-11.61-18.28l-.07,0c-10-4.3-36-6.62-36-6.62h-1.2s-26.06,2.32-36,6.62l-.07,0S93.38,212,89.45,228.92s-5.73,28.72-5.73,28.72-7.1,1.92-19.88,18a42.49,42.49,0,0,0-5.09,8.26h0s9.82-3.23,16.7,1.72c0,0,22.54-9.56,23.67-19.64,0-.36.09-.76.14-1.19.64,15.3,1.19,28.08,1.19,28.08h74.62s.56-12.78,1.2-28.08c0,.43.09.83.13,1.19,1.14,10.08,26.09,21.38,26.09,21.38,6.84-10.52,16.77-4.71,16.77-4.71Z" style="fill:#fff;stroke:#263238;stroke-linecap:round;stroke-linejoin:round;stroke-width:0.8738100494572422px"></path></clipPath><clipPath id="freepik--clip-path-6--inject-4"><path d="M151.77,205.64c-1.21,6.06-7.07,8.25-14.13,8.25s-12.9-2.18-14.13-8.22l.28,0a3.65,3.65,0,0,0,3.06-2.78A2.79,2.79,0,0,0,127,202v-7.11h21.6V202a3.53,3.53,0,0,0,.24,1.3h0a3.67,3.67,0,0,0,2.93,2.34Z" style="fill:#fff;stroke:#263238;stroke-linecap:round;stroke-linejoin:round;stroke-width:0.8738100494572422px"></path></clipPath></defs><g id="freepik--background-simple--inject-4"><path d="M463.5,150.23c-21-17.55-49.81-41.75-74.58-62.71a126.7,126.7,0,0,0-89.39-30c-36.19,2.22-81.28,14.87-113.19,57.71-61.89,83.07-34.25,277.45,85,314.13S498,438.1,561.51,377.26,617.24,200.89,586.94,187c-15.7-7.23-40.45-10.29-60.67-11.57A108.57,108.57,0,0,1,463.5,150.23Z" style="fill:#F96D00"></path><path d="M463.5,149.23c-21-17.55-49.81-41.75-74.58-62.71a126.7,126.7,0,0,0-89.39-30c-36.19,2.22-81.28,14.87-113.19,57.71-61.89,83.07-34.25,277.45,85,314.13S498,437.1,561.51,376.26,617.24,199.89,586.94,186c-15.7-7.23-40.45-10.29-60.67-11.57A108.57,108.57,0,0,1,463.5,149.23Z" style="fill:#fff;opacity:0.7000000000000001"></path></g><g id="freepik--Podcast--inject-4"><path d="M402,216.08a48.66,48.66,0,0,0-69,65.17" style="fill:none;stroke:#263238;stroke-linecap:round;stroke-linejoin:round;stroke-width:0.9696422508675577px"></path><path d="M419.3,236.72a49.83,49.83,0,0,0-3.28-6.17" style="fill:none;stroke:#263238;stroke-linecap:round;stroke-linejoin:round;stroke-width:0.9696422508675577px"></path><path d="M415.15,283.62a48.82,48.82,0,0,0,7.28-37.16" style="fill:none;stroke:#263238;stroke-linecap:round;stroke-linejoin:round;stroke-width:0.9696422508675577px"></path><path d="M326.51,208.12A69.67,69.67,0,0,0,317.66,219" style="fill:none;stroke:#263238;stroke-linecap:round;stroke-linejoin:round;stroke-width:0.9696422508675577px"></path><path d="M428.82,298.23a68.31,68.31,0,0,0-89.92-99.92" style="fill:none;stroke:#263238;stroke-linecap:round;stroke-linejoin:round;stroke-width:0.9696422508675577px"></path><path d="M320.68,298.23a68.48,68.48,0,0,1-11.12-62.46" style="fill:none;stroke:#263238;stroke-linecap:round;stroke-linejoin:round;stroke-width:0.9696422508675577px"></path><path d="M299.27,315.5a96.19,96.19,0,0,0,14.38,14.78" style="fill:none;stroke:#263238;stroke-linecap:round;stroke-linejoin:round;stroke-width:0.9696422508675577px"></path><path d="M429.06,177.33A95.93,95.93,0,0,0,286.57,294" style="fill:none;stroke:#263238;stroke-linecap:round;stroke-linejoin:round;stroke-width:0.9696422508675577px"></path><path d="M464.26,221.78a95.8,95.8,0,0,0-9.87-18.89" style="fill:none;stroke:#263238;stroke-linecap:round;stroke-linejoin:round;stroke-width:0.9696422508675577px"></path><path d="M441.1,325.71a95.6,95.6,0,0,0,29.61-69.29" style="fill:none;stroke:#263238;stroke-linecap:round;stroke-linejoin:round;stroke-width:0.9696422508675577px"></path><path d="M240.8,256.42A134.68,134.68,0,0,0,353,389.21" style="fill:none;stroke:#263238;stroke-linecap:round;stroke-linejoin:round;stroke-width:0.9696422508675577px"></path><path d="M483,336.55A134.71,134.71,0,0,0,343.63,125.4" style="fill:none;stroke:#263238;stroke-linecap:round;stroke-linejoin:round;stroke-width:0.9696422508675577px"></path><path d="M240.8,256.42A134.7,134.7,0,0,1,343.67,125.54" style="fill:none;stroke:#263238;stroke-linecap:round;stroke-linejoin:round;stroke-width:0.9696422508675577px"></path><path d="M454.39,365q5.13-3.77,9.87-8" style="fill:none;stroke:#263238;stroke-linecap:round;stroke-linejoin:round;stroke-width:0.9696422508675577px"></path><path d="M397.21,389.21a133.73,133.73,0,0,0,43.59-15.4" style="fill:none;stroke:#263238;stroke-linecap:round;stroke-linejoin:round;stroke-width:0.9696422508675577px"></path><path d="M374.81,377.15a51.5,51.5,0,0,1-51.44-51.44V308.39a2.8,2.8,0,0,1,2.8-2.8h7a2.8,2.8,0,0,1,0,5.6H329v14.52a45.84,45.84,0,1,0,91.68,0V311.19h-4.2a2.8,2.8,0,1,1,0-5.6h7a2.8,2.8,0,0,1,2.8,2.8v17.32A51.5,51.5,0,0,1,374.81,377.15Z" style="fill:#263238"></path><path d="M429.05,420.19v-5.6a5.59,5.59,0,0,0-5.6-5.6H326.17a5.59,5.59,0,0,0-5.6,5.6v5.6Z" style="fill:#263238"></path><path d="M380.27,415.81a5.43,5.43,0,0,0,.14-1.22V374.35h-11.2v40.24a5.43,5.43,0,0,0,.14,1.22Z" style="fill:#263238"></path><path d="M409.45,256.42a34.65,34.65,0,1,0-69.29,0v69.29a34.65,34.65,0,0,0,69.29,0Z" style="fill:none;stroke:#263238;stroke-linecap:round;stroke-linejoin:round;stroke-width:0.9696422508675577px"></path><path d="M409.45,256.42a34.65,34.65,0,1,0-69.29,0v69.29a34.65,34.65,0,0,0,69.29,0Z" style="fill:#F96D00"></path><g style="clip-path:url(#freepik--clip-path--inject-4)"><path d="M360.46,260.07h-20.3v8.4h20.3a4.2,4.2,0,1,0,0-8.4Z" style="fill:#fff"></path><path d="M409.45,260.07H389.16a4.2,4.2,0,1,0,0,8.4h20.29Z" style="fill:#fff"></path><path d="M374.81,260.07a4.2,4.2,0,1,0,4.2,4.2A4.2,4.2,0,0,0,374.81,260.07Z" style="fill:#fff"></path><path d="M374.81,277.05a4.2,4.2,0,1,0,4.2,4.2A4.2,4.2,0,0,0,374.81,277.05Z" style="fill:#fff"></path><path d="M374.81,294a4.2,4.2,0,1,0,4.2,4.2A4.2,4.2,0,0,0,374.81,294Z" style="fill:#fff"></path><path d="M360.46,277.05h-20.3v8.4h20.3a4.2,4.2,0,1,0,0-8.4Z" style="fill:#fff"></path><path d="M409.45,277.05H389.16a4.2,4.2,0,0,0,0,8.4h20.29Z" style="fill:#fff"></path><path d="M360.46,294h-20.3v8.4h20.3a4.2,4.2,0,0,0,0-8.4Z" style="fill:#fff"></path><path d="M409.45,294H389.16a4.2,4.2,0,0,0,0,8.4h20.29Z" style="fill:#fff"></path></g><path d="M409.45,256.42a34.65,34.65,0,1,0-69.29,0v69.29a34.65,34.65,0,0,0,69.29,0Z" style="fill:none;stroke:#263238;stroke-miterlimit:10;stroke-width:0.9696422508675577px"></path><path d="M340.16,325.71a34.65,34.65,0,0,0,69.29,0Z" style="fill:#263238;stroke:#263238;stroke-miterlimit:10;stroke-width:0.9696422508675577px"></path></g><g id="freepik--character-1--inject-4"><ellipse cx="142.04" cy="430.53" rx="46.69" ry="6.87" style="fill:#F96D00"></ellipse><circle cx="137.95" cy="239.74" r="81.31" style="fill:#F96D00"></circle><path d="M100.45,292.91s2.07,12-4.92,25.49h87.41s-4-6.29-8.19-25.49Z" style="fill:#fff;stroke:#263238;stroke-linecap:round;stroke-linejoin:round;stroke-width:0.8738100494572422px"></path><path d="M120.38,295.68a26.07,26.07,0,0,0-22,16c-.94,2.28-1.92,4.59-2.85,6.75-5.32,12.31-.29,30.22,13.31,30.22H171.2c12.33,0,15.7-15.61,12.75-27.37-1.9-7.56-5.73-15.15-12.27-20.47C162.94,293.66,137.4,294.32,120.38,295.68Z" style="fill:#263238;stroke:#263238;stroke-linecap:round;stroke-linejoin:round;stroke-width:0.8738100494572422px"></path><path d="M60.84,282.47s-11.18,6.76-11.55,10.44H63L68.45,289l-1.84,3.93h4.17s4.43-3.44,4.67-7.25L75,282.47l-8-3.56Z" style="fill:#fff;stroke:#263238;stroke-linecap:round;stroke-linejoin:round;stroke-width:0.8738100494572422px"></path><path d="M191.8,257.64s-1.79-11.77-5.72-28.72-11.61-18.28-11.61-18.28l-.07,0c-10-4.3-36-6.62-36-6.62h-1.2s-26.06,2.32-36,6.62l-.07,0S93.38,212,89.45,228.92s-5.73,28.72-5.73,28.72-7.1,1.92-19.88,18a42.49,42.49,0,0,0-5.09,8.26h0s9.82-3.23,16.7,1.72c0,0,22.54-9.56,23.67-19.64,0-.36.09-.76.14-1.19.64,15.3,1.19,28.08,1.19,28.08h74.62s.56-12.78,1.2-28.08c0,.43.09.83.13,1.19,1.14,10.08,26.09,21.38,26.09,21.38,6.84-10.52,16.77-4.71,16.77-4.71Z" style="fill:#fff"></path><g style="clip-path:url(#freepik--clip-path-5--inject-4)"><path d="M99.12,266c0-.3.08-.64.12-1l-1.63-35.41s-4.5.92-3.21,11.79,4,9,2.49,13.19-7.37-.61-9.31,3,10.84,2.84,5.56,12.14-17.69,16-17.69,16S98,276.1,99.12,266Z" style="opacity:0.30000000000000004"></path><g style="opacity:0.30000000000000004"><path d="M176.75,266c0-.3,2.94.22,0,0l.89-30.31s-.22,14.66,1.35,18.88,7.37-.61,9.3,3-10.84,2.84-5.55,12.14,17.68,16,17.68,16S177.89,276.1,176.75,266Z"></path></g><path d="M175.61,272.9c-.49,11.47-.86,20-.86,20H107.66c45,0,68-20,68-20Z" style="opacity:0.30000000000000004"></path></g><path d="M191.8,257.64s-1.79-11.77-5.72-28.72-11.61-18.28-11.61-18.28l-.07,0c-10-4.3-36-6.62-36-6.62h-1.2s-26.06,2.32-36,6.62l-.07,0S93.38,212,89.45,228.92s-5.73,28.72-5.73,28.72-7.1,1.92-19.88,18a42.49,42.49,0,0,0-5.09,8.26h0s9.82-3.23,16.7,1.72c0,0,22.54-9.56,23.67-19.64,0-.36.09-.76.14-1.19.64,15.3,1.19,28.08,1.19,28.08h74.62s.56-12.78,1.2-28.08c0,.43.09.83.13,1.19,1.14,10.08,26.09,21.38,26.09,21.38,6.84-10.52,16.77-4.71,16.77-4.71Z" style="fill:none;stroke:#263238;stroke-linecap:round;stroke-linejoin:round;stroke-width:0.8738100494572422px"></path><path d="M86.11,257.57A13.83,13.83,0,0,1,95.94,261" style="fill:none;stroke:#263238;stroke-linecap:round;stroke-linejoin:round;stroke-width:0.8738100494572422px"></path><path d="M93.14,230.65s4.62,1,5.68,23.46l-1.39-29.48" style="fill:none;stroke:#263238;stroke-linecap:round;stroke-linejoin:round;stroke-width:0.8738100494572422px"></path><line x1="98.88" y1="257.23" x2="99.09" y2="261.78" style="fill:none;stroke:#263238;stroke-linecap:round;stroke-linejoin:round;stroke-width:0.8738100494572422px"></line><path d="M189.42,257.57a13.83,13.83,0,0,0-9.83,3.38" style="fill:none;stroke:#263238;stroke-linecap:round;stroke-linejoin:round;stroke-width:0.8738100494572422px"></path><path d="M177.82,230.65q.13-3,.28-6" style="fill:none;stroke:#263238;stroke-linecap:round;stroke-linejoin:round;stroke-width:0.8738100494572422px"></path><path d="M151.77,205.64c-1.21,6.06-7.07,8.25-14.13,8.25s-12.9-2.18-14.13-8.22l.28,0a3.65,3.65,0,0,0,3.06-2.78A2.79,2.79,0,0,0,127,202v-7.11h21.6V202a3.53,3.53,0,0,0,.24,1.3h0a3.67,3.67,0,0,0,2.93,2.34Z" style="fill:#fff"></path><g style="clip-path:url(#freepik--clip-path-6--inject-4)"><path d="M148.42,200.21c-3.58,3.52-7.57,5.71-11.42,5.88-4,.18-8.64-3.1-10.53-6.32a3,3,0,0,0,.11-.86v-2.18l21.6.23v1.95C148.18,199.37,148.73,199.91,148.42,200.21Z" style="fill:#263238"></path></g><path d="M151.77,205.64c-1.21,6.06-7.07,8.25-14.13,8.25s-12.9-2.18-14.13-8.22l.28,0a3.65,3.65,0,0,0,3.06-2.78A2.79,2.79,0,0,0,127,202v-7.11h21.6V202a3.53,3.53,0,0,0,.24,1.3h0a3.67,3.67,0,0,0,2.93,2.34Z" style="fill:none;stroke:#263238;stroke-linecap:round;stroke-linejoin:round;stroke-width:0.8738100494572422px"></path><path d="M121.86,179.62s-7.49-8.47-6.51-20.14,10.56-11.67,10.56-11.67,11.55-10.19,24.44-3.81,12,28.5,2.46,34Z" style="fill:#263238"></path><path d="M154.88,173.92c.1-1.94.09-3.14.09-3.14-.86-5.16-7.17-5.68-10.07-5.77-12.15-.41-15.35-7.86-15.35-7.86-7.37-2.21-9.46,13.63-9.46,13.63s0,1.2.1,3.14a5.52,5.52,0,0,0-4.48,5.66c0,3.16,2.28,5.71,5.1,5.71a4.8,4.8,0,0,0,.85-.08l1.32,7.44c.25,1.67,1.82,5.62,3.23,6.56,3,2,7.75,4.85,11.32,4.85,3.08,0,7.4-2.54,10.59-4.27,1.78-1,3.74-4.83,3.91-6.84l.83-7.52a13.54,13.54,0,0,0,1.4-.14c2.81,0,5.1-2.55,5.1-5.71A5.52,5.52,0,0,0,154.88,173.92Z" style="fill:#fff;stroke:#263238;stroke-linecap:round;stroke-linejoin:round;stroke-width:0.8738100494572422px"></path><rect x="116.35" y="169.12" width="1.32" height="4.7" style="fill:#fff;stroke:#263238;stroke-linecap:round;stroke-linejoin:round;stroke-width:0.8738100494572422px"></rect><rect x="156.68" y="169.12" width="1.32" height="4.7" style="fill:#fff;stroke:#263238;stroke-linecap:round;stroke-linejoin:round;stroke-width:0.8738100494572422px"></rect><path d="M137.17,148.59a21.68,21.68,0,0,0-21.67,20.89.77.77,0,0,0,.78.8h1.4a.78.78,0,0,0,.78-.76,18.73,18.73,0,0,1,37.42,0,.79.79,0,0,0,.79.76h1.39a.78.78,0,0,0,.79-.8A21.69,21.69,0,0,0,137.17,148.59Z" style="fill:#fff;stroke:#263238;stroke-linecap:round;stroke-linejoin:round;stroke-width:0.8738100494572422px"></path><path d="M119.92,172.13l-.3,0a6.85,6.85,0,0,0,0,13.69l.3,0Z" style="fill:#263238;stroke:#263238;stroke-miterlimit:10;stroke-width:0.8738100494572422px"></path><path d="M121.55,179c0,5.07.22,8.37-1.53,8.37s-2.35-3.3-2.35-8.37.6-8.38,2.35-8.38S121.55,173.88,121.55,179Z" style="fill:#fff;stroke:#263238;stroke-linecap:round;stroke-linejoin:round;stroke-width:0.8738100494572422px"></path><path d="M154.43,172.13l.3,0a6.85,6.85,0,0,1,0,13.69l-.3,0Z" style="fill:#263238;stroke:#263238;stroke-miterlimit:10;stroke-width:0.8738100494572422px"></path><path d="M152.79,179c0,5.07-.21,8.37,1.54,8.37s2.35-3.3,2.35-8.37-.6-8.38-2.35-8.38S152.79,173.88,152.79,179Z" style="fill:#fff;stroke:#263238;stroke-linecap:round;stroke-linejoin:round;stroke-width:0.8738100494572422px"></path><path d="M125.47,180.23s2.85,3.51,8.19.74" style="fill:none;stroke:#263238;stroke-linecap:round;stroke-linejoin:round;stroke-width:0.8738100494572422px"></path><path d="M133.66,193.88a6.9,6.9,0,0,0,8.11,0" style="fill:none;stroke:#263238;stroke-linecap:round;stroke-linejoin:round;stroke-width:0.75px"></path><path d="M124.68,175.52s5.17-3.94,9.77,0" style="fill:none;stroke:#263238;stroke-linecap:round;stroke-linejoin:round;stroke-width:0.8738100494572422px"></path><path d="M150.07,175.65s-5.17-4-9.77,0" style="fill:none;stroke:#263238;stroke-linecap:round;stroke-linejoin:round;stroke-width:0.8738100494572422px"></path><path d="M141.47,188.36s.46,2.56-4.23,2.5c-1.15,0-3.24-.82-3.31-2.5" style="fill:none;stroke:#263238;stroke-linecap:round;stroke-linejoin:round;stroke-width:0.75px"></path><path d="M126.59,181.16c.43.85,1.4,1.83,3.57,1.88s2.55-.81,2.59-1.65A6.56,6.56,0,0,1,126.59,181.16Z" style="fill:#263238"></path><path d="M149.32,180.23s-2.85,3.51-8.19.74" style="fill:none;stroke:#263238;stroke-linecap:round;stroke-linejoin:round;stroke-width:0.8738100494572422px"></path><path d="M148.2,181.16c-.43.85-1.4,1.83-3.57,1.88s-2.55-.81-2.59-1.65A6.55,6.55,0,0,0,148.2,181.16Z" style="fill:#263238"></path><path d="M128.37,142.94s-2.63,1.47-2.34,5.65c0,0-.92-2.82-4.3-1.59" style="fill:none;stroke:#263238;stroke-linecap:round;stroke-linejoin:round;stroke-width:0.8738100494572422px"></path><path d="M137.76,217a16.72,16.72,0,0,0,15.74-11.09c-.91-.14-1.81-.26-2.68-.38a15.32,15.32,0,0,1-26.11,0c-.87.12-1.77.24-2.68.38A16.72,16.72,0,0,0,137.76,217Z" style="fill:#263238;stroke:#263238;stroke-linecap:round;stroke-linejoin:round;stroke-width:0.8738100494572422px"></path><path d="M176.27,264.83q.66-14.62,1.33-29.25" style="fill:none;stroke:#263238;stroke-linecap:round;stroke-linejoin:round;stroke-width:0.8738100494572422px"></path><g style="opacity:0.30000000000000004"><polygon points="99.6 272.91 99.6 272.91 99.6 272.9 99.6 272.91"></polygon></g><path d="M176.6,165.21V154.44a2,2,0,0,0-2-2H157.74a2,2,0,0,0-2,2v10.77a2,2,0,0,0,2,2h5.88l-.47,4.1h3v3.87l3.59-6.31h-2.95l.31-1.66h7.49A2,2,0,0,0,176.6,165.21Z" style="fill:#fff;stroke:#263238;stroke-linecap:round;stroke-linejoin:round;stroke-width:0.8738100494572422px"></path><line x1="159" y1="156.17" x2="170.43" y2="156.17" style="fill:none;stroke:#263238;stroke-linecap:round;stroke-linejoin:round;stroke-width:0.8738100494572422px"></line><line x1="159" y1="159.22" x2="173.37" y2="159.22" style="fill:none;stroke:#263238;stroke-linecap:round;stroke-linejoin:round;stroke-width:0.8738100494572422px"></line><line x1="159" y1="162.27" x2="171.16" y2="162.27" style="fill:none;stroke:#263238;stroke-linecap:round;stroke-linejoin:round;stroke-width:0.8738100494572422px"></line><path d="M228.4,287.7c0,3.18-5,5.17-11.14,5.17s-11.14-2-11.14-5.17,5-5.77,11.14-5.77S228.4,284.51,228.4,287.7Z" style="fill:#fff;stroke:#263238;stroke-linecap:round;stroke-linejoin:round;stroke-width:0.8738100494572422px"></path><path d="M210.05,291.72c.3-.07.54-1.75-2.17-3-1.88-.86-1.93-1.77-.85-2.89s2.92-2.06,4.34-1.65c2.31.66,3.84,5.47,4.87,4.43,1.55-.4-.32-4.81-3.09-6.26,5,1.24,5.24,7,7.54,6.54,1.76-.34-1.28-6.06-3.91-7.75a11.7,11.7,0,0,1,4.3,3.43c1.67,2.43,1.86,3.25,3,2.9,1.48-.47-2.05-5.81-2.49-6.39,2.22.88,2.64,2.74,3.32,3.49s1,2,1.94,1.51.07-2.23-.56-3.25c-3-4.85-8-5.66-12.76-5.06-3.76.48-8.08,2.06-10.37,5.06a4.69,4.69,0,0,0-.32,5.3C203.64,289.82,206.5,292.52,210.05,291.72Z" style="fill:#fff;stroke:#263238;stroke-linecap:round;stroke-linejoin:round;stroke-width:0.8738100494572422px"></path><rect x="46.3" y="292.91" width="186.01" height="3.57" rx="0.99" style="fill:#bfbfbf;stroke:#263238;stroke-miterlimit:10;stroke-width:0.8738100494572422px"></rect><path d="M52.69,292.91,39.15,251.76a1.09,1.09,0,0,1,1-1.42H82.92l15.23,42.57Z" style="fill:#263238"></path><path d="M84.09,250.34l14,40.18h37.5v1.41a1,1,0,0,1-1,1H95.69L82.22,252a1.23,1.23,0,0,1,1.16-1.61Z" style="fill:#fff;stroke:#263238;stroke-linecap:round;stroke-linejoin:round;stroke-width:0.8738100494572422px"></path><path d="M64.23,271.63a3.8,3.8,0,0,0-.94-1.87A2.15,2.15,0,0,1,65,269a3.47,3.47,0,0,1,3.23,2.67,2.09,2.09,0,0,1-2.1,2.67,3.27,3.27,0,0,1-2.08-.81A2.71,2.71,0,0,0,64.23,271.63Z" style="fill:#fff"></path><path d="M150.88,292.91h13.67a14.15,14.15,0,0,0,5.79-11.61v-6.43a1.86,1.86,0,0,0-1.86-1.86H147a1.85,1.85,0,0,0-1.85,1.86v6.43A14.14,14.14,0,0,0,150.88,292.91Z" style="fill:#fff;stroke:#263238;stroke-linecap:round;stroke-linejoin:round;stroke-width:0.8738100494572422px"></path><path d="M174.22,275.75a3.94,3.94,0,0,0-3.88-.18v2.32a2.46,2.46,0,0,1,1.71.34c1.93,1.12,1.52,3.41.17,5.74a6.22,6.22,0,0,1-3,3,14.12,14.12,0,0,1-1.49,2.73c2.57.56,4.92-1.62,6.76-4.8C176.65,281.16,177.3,277.53,174.22,275.75Z" style="fill:#fff;stroke:#263238;stroke-linecap:round;stroke-linejoin:round;stroke-width:0.8738100494572422px"></path><path d="M158,262.88a16.61,16.61,0,0,0,.73-5c0-9.4-8.84-10.51-8.84-21.19" style="fill:none;stroke:#263238;stroke-linecap:round;stroke-linejoin:round;stroke-width:0.8738100494572422px"></path><path d="M151.73,271.17a14.06,14.06,0,0,0,4.07-3.85" style="fill:none;stroke:#263238;stroke-linecap:round;stroke-linejoin:round;stroke-width:0.8738100494572422px"></path><path d="M157.23,245.65a5.18,5.18,0,0,1-.59-3" style="fill:none;stroke:#263238;stroke-linecap:round;stroke-linejoin:round;stroke-width:0.8738100494572422px"></path><path d="M164.12,258.85c-.45-2.94-2.14-5.7-3.81-8.21" style="fill:none;stroke:#263238;stroke-linecap:round;stroke-linejoin:round;stroke-width:0.8738100494572422px"></path><path d="M159,271.28s2.92-1.23,4.52-6.78" style="fill:none;stroke:#263238;stroke-linecap:round;stroke-linejoin:round;stroke-width:0.8738100494572422px"></path><rect x="92.08" y="348.62" width="94.68" height="69.3" rx="9.9" style="fill:#fff;stroke:#263238;stroke-miterlimit:10;stroke-width:0.8738100494572422px"></rect><path d="M115.75,396.3l1.13,19.77.13.17a9.5,9.5,0,0,0,15.36-.17h0l.42-19.77Z" style="fill:#fff;stroke:#263238;stroke-linecap:round;stroke-linejoin:round;stroke-width:0.8738100494572422px"></path><path d="M136.53,435.39h0a66.39,66.39,0,0,1-22.93,0h0a10.92,10.92,0,0,1-1.81-2.36,9.93,9.93,0,0,1-.37-9l4.57-8.15,18.11.2,4.08,7.44a10,10,0,0,1-1.07,11.26A8.07,8.07,0,0,1,136.53,435.39Z" style="fill:#bfbfbf;stroke:#263238;stroke-miterlimit:10;stroke-width:0.8738100494572422px"></path><path d="M132.08,425.13a18.5,18.5,0,0,1,3.19,1.8" style="fill:#bfbfbf;stroke:#263238;stroke-miterlimit:10;stroke-width:0.8738100494572422px"></path><path d="M115,426.93a18.2,18.2,0,0,1,13.74-2.85" style="fill:#bfbfbf;stroke:#263238;stroke-miterlimit:10;stroke-width:0.8738100494572422px"></path><path d="M106,314.71l8,91.68h20.69s2.05-56,3.35-92.36A16,16,0,0,0,122,297.4h0A16,16,0,0,0,106,314.71Z" style="fill:#263238"></path><path d="M126.59,298.05a16.06,16.06,0,0,0-4.64-.65h0A16,16,0,0,0,106,314.71l2.84,33.91" style="fill:none;stroke:#fff;stroke-linecap:round;stroke-linejoin:round;stroke-width:0.8738100494572422px"></path><path d="M135.23,304.3a16.77,16.77,0,0,0-2.87-3.14s-1.25-1-1.81-1.32" style="fill:none;stroke:#fff;stroke-linecap:round;stroke-linejoin:round;stroke-width:0.8738100494572422px"></path><path d="M136.67,348.62c.41-11.35,1.05-24.63,1.4-34.59a16,16,0,0,0-1.4-7.19" style="fill:none;stroke:#fff;stroke-linecap:round;stroke-linejoin:round;stroke-width:0.8738100494572422px"></path><path d="M149.41,396.3l1.13,19.77.13.17a9.5,9.5,0,0,0,15.36-.17h0l.42-19.77Z" style="fill:#fff;stroke:#263238;stroke-linecap:round;stroke-linejoin:round;stroke-width:0.8738100494572422px"></path><path d="M170.19,435.39h0a66.39,66.39,0,0,1-22.93,0h0a10.72,10.72,0,0,1-1.8-2.36,9.9,9.9,0,0,1-.38-9l4.58-8.15,18.1.2,4.08,7.44a10,10,0,0,1-1.07,11.26A8.07,8.07,0,0,1,170.19,435.39Z" style="fill:#bfbfbf;stroke:#263238;stroke-miterlimit:10;stroke-width:0.8738100494572422px"></path><path d="M165.74,425.13a18.13,18.13,0,0,1,3.19,1.8" style="fill:#bfbfbf;stroke:#263238;stroke-miterlimit:10;stroke-width:0.8738100494572422px"></path><path d="M148.68,426.93a18.21,18.21,0,0,1,13.74-2.85" style="fill:#bfbfbf;stroke:#263238;stroke-miterlimit:10;stroke-width:0.8738100494572422px"></path><path d="M139.69,314.71l8,91.68h20.69s2.05-56,3.36-92.36a16.05,16.05,0,0,0-16.12-16.63h0A16,16,0,0,0,139.69,314.71Z" style="fill:#263238"></path><path d="M162.22,298.78a16,16,0,0,0-6.6-1.38h0a16,16,0,0,0-15.93,17.31l3,33.91" style="fill:none;stroke:#fff;stroke-linecap:round;stroke-linejoin:round;stroke-width:0.8738100494572422px"></path><path d="M168.89,304.3a16.17,16.17,0,0,0-2.87-3.14" style="fill:none;stroke:#fff;stroke-linecap:round;stroke-linejoin:round;stroke-width:0.8738100494572422px"></path><path d="M171.2,348.62c.41-11.35.18-24.63.54-34.59a16.05,16.05,0,0,0-1.08-6.41" style="fill:none;stroke:#fff;stroke-linecap:round;stroke-linejoin:round;stroke-width:0.8738100494572422px"></path></g><g id="freepik--Graphics--inject-4"><path d="M416.25,158.67V116a7.78,7.78,0,0,0-7.78-7.78H341.53a7.78,7.78,0,0,0-7.78,7.78v42.67a7.78,7.78,0,0,0,7.78,7.78h23.31L363,182.69H375V198l14.24-25H377.56l1.23-6.56h29.68A7.78,7.78,0,0,0,416.25,158.67Z" style="fill:#fff;stroke:#263238;stroke-linecap:round;stroke-linejoin:round;stroke-width:1.0254712104797363px"></path><line x1="346.53" y1="122.82" x2="391.79" y2="122.82" style="fill:none;stroke:#263238;stroke-linecap:round;stroke-linejoin:round;stroke-width:1.0254712104797363px"></line><line x1="346.53" y1="134.91" x2="403.47" y2="134.91" style="fill:none;stroke:#263238;stroke-linecap:round;stroke-linejoin:round;stroke-width:1.0254712104797363px"></line><line x1="346.53" y1="147" x2="394.71" y2="147" style="fill:none;stroke:#263238;stroke-linecap:round;stroke-linejoin:round;stroke-width:1.0254712104797363px"></line><polygon points="467.38 341.38 507.82 354.86 497.79 364.9 516.51 383.62 476.07 370.14 486.1 360.1 467.38 341.38" style="fill:#F96D00;stroke:#263238;stroke-linecap:round;stroke-linejoin:round;stroke-width:1.0254712104797363px"></polygon><polygon points="282.62 341.38 242.18 354.86 252.21 364.9 233.49 383.62 273.93 370.14 263.9 360.1 282.62 341.38" style="fill:#F96D00;stroke:#263238;stroke-linecap:round;stroke-linejoin:round;stroke-width:1.0254712104797363px"></polygon><polygon points="373.87 32.14 354.8 70.28 369 70.28 369 96.76 388.06 58.62 373.87 58.62 373.87 32.14" style="fill:#F96D00;stroke:#263238;stroke-linecap:round;stroke-linejoin:round;stroke-width:1.0254712104797363px"></polygon></g></svg>